<?xml version="1.0" standalone="no"?>
<!DOCTYPE svg PUBLIC "-//W3C//DTD SVG 20010904//EN"
 "http://www.w3.org/TR/2001/REC-SVG-20010904/DTD/svg10.dtd">
<svg version="1.0" xmlns="http://www.w3.org/2000/svg"
 width="512.000000pt" height="512.000000pt" viewBox="0 0 512.000000 512.000000"
 preserveAspectRatio="xMidYMid meet">
<metadata>
Created by potrace 1.14, written by Peter Selinger 2001-2017
</metadata>
<g transform="translate(0.000000,512.000000) scale(0.100000,-0.100000)"
fill="#000000" stroke="none">
<path d="M1797 4854 c-24 -23 -28 -35 -24 -61 11 -62 27 -69 187 -78 145 -7
186 -12 330 -41 522 -104 1009 -383 1305 -749 234 -289 344 -576 348 -905 3
-206 -21 -350 -90 -535 -27 -75 -109 -236 -146 -288 -94 -133 -209 -256 -301
-321 -83 -60 -205 -119 -297 -145 -106 -30 -113 -26 -39 17 36 20 106 78 156
127 140 138 218 274 269 468 13 52 29 105 34 118 36 85 55 220 55 394 -1 191
-32 322 -121 501 -126 254 -423 510 -737 634 -81 32 -225 76 -280 86 -367 65
-699 21 -1006 -134 -63 -31 -142 -75 -175 -97 -186 -122 -388 -315 -527 -505
-155 -212 -270 -432 -357 -684 -39 -113 -95 -324 -106 -401 -21 -148 -25 -185
-31 -279 -9 -141 -2 -173 41 -193 29 -14 38 -14 65 -3 42 17 47 36 54 176 3
66 8 128 10 140 2 12 7 45 11 75 18 146 80 379 144 539 264 661 758 1115 1322
1216 112 21 343 23 444 5 39 -6 81 -14 95 -16 43 -7 182 -51 250 -79 72 -30
231 -116 270 -146 14 -11 43 -34 65 -51 67 -51 185 -171 231 -235 59 -83 120
-208 145 -300 11 -41 19 -78 16 -80 -2 -2 -20 22 -40 53 -20 32 -47 71 -61 86
-14 16 -26 32 -28 35 -2 4 -32 34 -68 66 -124 114 -253 183 -427 230 -48 13
-128 36 -177 50 -108 31 -195 41 -346 41 -177 -1 -321 -36 -485 -117 -116 -58
-197 -118 -306 -228 -332 -336 -495 -805 -446 -1290 23 -223 123 -490 264
-703 289 -437 830 -797 1403 -933 113 -27 101 -25 207 -43 121 -22 338 -36
389 -26 47 8 73 59 55 103 -18 43 -42 50 -176 57 -66 3 -129 7 -141 9 -12 2
-45 7 -75 11 -168 21 -466 107 -631 182 -542 247 -921 630 -1073 1087 -19 56
-36 116 -39 134 -4 17 -8 45 -11 62 -16 95 -21 161 -20 257 2 113 6 146 31
278 60 313 265 643 509 820 102 74 259 143 363 160 l37 7 -29 -16 c-103 -57
-245 -187 -313 -287 -60 -87 -103 -178 -129 -270 -14 -52 -37 -128 -50 -170
-65 -201 -78 -404 -39 -617 19 -105 74 -245 138 -352 59 -96 90 -135 194 -237
239 -236 568 -394 913 -438 81 -11 286 -12 355 -3 126 17 142 20 217 39 188
47 443 172 592 289 371 294 642 693 796 1175 29 93 62 219 74 290 31 170 34
197 42 351 7 126 -5 167 -52 178 -34 9 -78 -9 -92 -37 -6 -12 -13 -74 -16
-137 -3 -63 -8 -137 -12 -165 -9 -76 -53 -292 -70 -349 -91 -295 -175 -479
-321 -699 -84 -127 -144 -200 -262 -318 -297 -296 -658 -458 -1034 -464 -296
-4 -575 77 -817 238 -246 164 -404 365 -469 600 -29 104 -26 111 17 38 52 -90
180 -221 276 -286 97 -64 193 -107 314 -139 48 -13 125 -35 172 -48 47 -14
110 -29 140 -33 86 -11 270 -14 330 -4 30 5 69 11 86 14 66 10 203 59 289 103
314 162 575 501 690 897 52 180 75 454 51 620 -13 92 -18 123 -32 180 -144
579 -639 1088 -1310 1349 -121 46 -327 109 -398 120 -21 4 -41 8 -45 10 -3 2
-28 7 -56 10 -45 6 -84 12 -140 22 -11 2 -81 7 -155 10 l-135 6 -28 -28z"/>
<path d="M1144 4550 c-68 -21 -116 -113 -99 -190 10 -46 73 -107 118 -115 81
-16 163 29 187 101 12 37 7 101 -10 134 -31 59 -124 92 -196 70z"/>
<path d="M1958 4465 c-69 -39 -31 -145 51 -145 10 0 30 11 45 25 23 21 27 32
23 61 -3 20 -11 43 -19 50 -21 21 -70 26 -100 9z"/>
<path d="M4746 3815 c-14 -15 -26 -36 -26 -46 0 -62 55 -102 110 -79 39 16 53
43 46 85 -8 40 -24 54 -69 62 -30 5 -40 1 -61 -22z"/>
<path d="M266 1415 c-41 -44 -30 -103 23 -125 41 -17 78 -6 96 30 30 58 7 106
-57 117 -31 5 -40 1 -62 -22z"/>
<path d="M3864 870 c-18 -6 -46 -26 -62 -45 -54 -61 -55 -149 -1 -209 90 -103
261 -50 276 86 13 116 -98 203 -213 168z"/>
<path d="M3078 785 c-69 -39 -31 -145 51 -145 10 0 30 11 45 25 23 21 27 32
23 61 -3 20 -11 43 -19 50 -21 21 -70 26 -100 9z"/>
</g>
</svg>
